<svg version="1" xmlns="http://www.w3.org/2000/svg" width="21.333" height="21.333" viewBox="0 0 16.000000 16.000000"><path d="M6.486 1.286c-.012.012-.024.683-.024 1.49V4.24l-.382.178c-.215.099-.69.314-1.064.48-.37.16-.69.308-.708.32-.019.013-.031 2.062-.031 4.554v4.536l-1.237.006c-.683 0-1.28.024-1.335.043-.05.018-.086.086-.074.148.012.061.024.141.024.172.007.086 3.022.086 3.028 0 .006-.03.013-2.11.019-4.61l.006-4.553.83-.388c.456-.21.85-.382.88-.388.025 0 .044 2.24.044 4.979 0 3.926.018 4.985.08 5.003.061.025 1.323.018 1.581-.006.08-.006.093-.603.08-5.04L8.191 4.32l-.006-.326-.646.018-.647.018V1.661h3.139v3.637l-.228.216c-.129.117-.449.393-.707.627l-.474.413.012 4.092.012 4.092h1.785l.03-4.424.032-4.425.19.178c.105.099.327.296.487.444l.295.264.025 3.951c.012 2.166.036 3.963.055 3.976.05.049 2.794.049 2.794 0a.47.47 0 0 1 .03-.13c.08-.227-.042-.252-1.255-.246H11.94l-.006-1.36c0-.75-.013-2.492-.019-3.877l-.018-2.505-.148-.129c-.08-.068-.382-.338-.665-.597a37.158 37.158 0 0 0-.566-.51c-.03-.019-.061-.942-.068-2.056l-.018-2.03H8.474c-1.077 0-1.97.011-1.988.024zm1.268 8.092v4.948h-.862v-4.91c0-3.872.019-4.918.08-4.942.037-.019.234-.037.431-.037l.351-.007v4.948zm2.252 4.88c-.018.043-.203.068-.492.074l-.468.006V6.781l.48-.443.474-.443.019 4.148c.006 2.277 0 4.172-.013 4.215z"/></svg>